<svg height="504pt" viewBox="0 -118 504.16 504" width="504pt" xmlns="http://www.w3.org/2000/svg"><path d="m376.160156 56.089844c0 2.199218-1.800781 4-4 4h-31.992187c-2.199219 0-4-1.800782-4-4v-32.011719c0-2.199219 1.800781-4 4-4h31.992187c2.199219 0 4 1.800781 4 4zm0 0" fill="#545c66"/><path d="m356.167969 28.078125c4.40625 0 8 3.601563 8 8 0 4.402344-3.59375 8-8 8-4.390625 0-8-3.597656-8-8 0-4.398437 3.609375-8 8-8zm0 0" fill="#656d78"/><path d="m344.160156 196.078125c0 12.402344 2.558594 24.21875 7.199219 34.914063.753906 1.726562-3.832031 5.085937-3.832031 5.085937h-8.328125v-1.4375l-35.046875-78.5625 64-64-32-8-19.761719-4.957031-.3125-.320313c15.441406-12.871093 20.082031-26.722656 20.082031-26.722656h40l33.007813-50.558594 7.039062 2.558594-.046875 24s40.625 22.691406 40.175782 78c-.015626 1.785156-2.511719 4.335937-4 4-6.289063-1.421875-13.449219-2-20.175782-2-12.082031 0-23.59375 2.402344-34.082031 6.800781-4.949219 2.167969-9.757813 4.640625-14.15625 7.601563-24 15.679687-39.761719 42.800781-39.761719 73.597656zm0 0" fill="#a0d468"/><path d="m351.535156 232.078125c0 2.210937-1.789062 4-4 4-2.207031 0-4-1.789063-4-4 0-2.207031 1.792969-4 4-4 2.210938 0 4 1.792969 4 4zm0 0" fill="#a0d468"/><path d="m168.855469 217.953125c0 2.207031-1.789063 4-4 4-2.207031 0-4-1.792969-4-4 0-2.210937 1.792969-4 4-4 2.210937 0 4 1.789063 4 4zm0 0" fill="#e6e9ed"/><path d="m463.222656 232.863281-43.878906-43.878906c-1.558594-1.558594-1.558594-4.097656 0-5.65625s4.097656-1.558594 5.65625 0l43.878906 43.878906c1.5625 1.5625 1.5625 4.097657 0 5.65625-1.558594 1.5625-4.09375 1.5625-5.65625 0zm0 0" fill="#e6e9ed"/><path d="m395.3125 227.207031 67.902344-67.902343c1.5625-1.5625 4.097656-1.5625 5.65625 0 1.5625 1.558593 1.5625 4.09375 0 5.65625l-67.902344 67.902343c-1.5625 1.5625-4.097656 1.5625-5.65625 0-1.558594-1.558593-1.558594-4.09375 0-5.65625zm0 0" fill="#e6e9ed"/><path d="m88.113281 64.078125h-40.023437c-2.210938 0-4-1.789063-4-4 0-2.207031 1.789062-4 4-4h40.023437c2.207031 0 4 1.792969 4 4 0 2.210937-1.792969 4-4 4zm0 0" fill="#8cc152"/><path d="m32.089844 80.078125c-1.027344 0-2.050782-.390625-2.832032-1.167969-1.5625-1.558594-1.5625-4.09375 0-5.652344l16-16c1.558594-1.5625 4.09375-1.5625 5.652344 0 1.5625 1.558594 1.5625 4.09375 0 5.652344l-16 16c-.773437.777344-1.796875 1.167969-2.820312 1.167969zm0 0" fill="#8cc152"/><path d="m152.078125 160.097656c-.636719 0-1.285156-.152344-1.878906-.480468-1.953125-1.042969-2.6875-3.464844-1.648438-5.410157l30.90625-57.800781c1.054688-1.957031 3.503907-2.695312 5.414063-1.636719 1.953125 1.039063 2.6875 3.460938 1.648437 5.40625l-30.902343 57.800781c-.730469 1.351563-2.113282 2.121094-3.539063 2.121094zm0 0" fill="#aab2bd"/><path d="m115.679688 231.679688c-1.566407 1.558593-4.09375 1.558593-5.664063 0l-73.535156-73.542969c-1.558594-1.5625-1.558594-4.089844 0-5.65625 1.566406-1.558594 4.09375-1.558594 5.664062 0l73.535157 73.542969c1.566406 1.5625 1.566406 4.089843 0 5.65625zm0 0" fill="#e6e9ed"/><path d="m36.480469 231.679688c-1.558594-1.566407-1.558594-4.09375 0-5.65625l73.535156-73.542969c1.570313-1.558594 4.097656-1.558594 5.664063 0 1.558593 1.566406 1.558593 4.09375 0 5.664062l-73.535157 73.535157c-1.570312 1.566406-4.097656 1.566406-5.664062 0zm0 0" fill="#e6e9ed"/><path d="m432.160156 124.078125c-39.769531 0-72 32.226563-72 72 0 39.769531 32.230469 72 72 72 39.769532 0 72-32.230469 72-72 0-39.773437-32.238281-72-72-72zm0 120c-26.503906 0-48-21.503906-48-48 0-26.503906 21.503906-48 48-48 26.503906 0 48 21.496094 48 48 0 26.507813-21.496094 48-48 48zm0 0" fill="#656d78"/><path d="m464.160156 196.078125c0 17.675781-14.328125 32-32 32s-32-14.324219-32-32c0-17.671875 14.328125-32 32-32s32 14.328125 32 32zm0 0" fill="#ccd1d9"/><path d="m76 116.078125c-41.96875 0-76 34.027344-76 76 0 41.976563 34.03125 76 76 76s76-34.023437 76-76c0-41.972656-34.03125-76-76-76zm0 128c-28.71875 0-52-23.285156-52-52 0-28.710937 23.28125-52 52-52s52 23.289063 52 52c0 28.714844-23.28125 52-52 52zm0 0" fill="#656d78"/><path d="m104.160156 192.078125c0 15.464844-12.535156 28-28 28s-28-12.535156-28-28c0-15.460937 12.535156-28 28-28s28 12.539063 28 28zm0 0" fill="#ccd1d9"/><path d="m88.160156 192.078125c0 6.628906-5.371094 12-12 12s-12-5.371094-12-12c0-6.625 5.371094-12 12-12s12 5.375 12 12zm0 0" fill="#e6e9ed"/><path d="m280.160156 172.078125c4.40625 0 8 3.601563 8 8 0 4.402344-3.59375 8-8 8-4.390625 0-8-3.597656-8-8 0-4.398437 3.609375-8 8-8zm0 0" fill="#e6e9ed"/><path d="m244.160156 144.078125c4.40625 0 8 3.601563 8 8 0 4.402344-3.59375 8-8 8-4.390625 0-8-3.597656-8-8 0-4.398437 3.609375-8 8-8zm0 0" fill="#ccd1d9"/><path d="m252.160156 152.078125c0-4.398437-3.59375-8-8-8-4.390625 0-8 3.601563-8 8 0 4.402344 3.609375 8 8 8 4.40625 0 8-3.597656 8-8zm-8 20c-11.03125 0-20-8.957031-20-20 0-11.039063 8.96875-20 20-20 11.046875 0 20 8.960937 20 20 0 11.042969-8.953125 20-20 20zm0 0" fill="#e6e9ed"/><path d="m439.207031 192.320312c2.082031 3.917969.640625 8.71875-3.277343 10.800782-3.921876 2.078125-8.722657.558594-10.800782-3.28125l-32.488281-61.121094-8.71875-16.238281c4.398437-2.960938 9.199219-5.441407 14.15625-7.601563v.089844l8.640625 16.320312zm0 0" fill="#e6e9ed"/><path d="m192.488281 209.601562-24.328125-13.523437-6.824218 20s.640624 4.753906 2.449218 5.875c6.832032 4.269531 23.71875 14.125 36.375 14.125h40zm0 0" fill="#e6e9ed"/><path d="m232.160156 116.078125-47.839844 48.167969-24.160156-16.167969 37.3125-35.148437zm0 0" fill="#ccd1d9"/><path d="m280.160156 188.078125c4.40625 0 8-3.597656 8-8 0-4.398437-3.59375-8-8-8-4.390625 0-8 3.601563-8 8 0 4.402344 3.609375 8 8 8zm-56-36c0 11.042969 8.96875 20 20 20 11.046875 0 20-8.957031 20-20 0-11.039063-8.953125-20-20-20-11.03125 0-20 8.960937-20 20zm8-52h16c33.28125 0 54.640625-10.238281 67.917969-21.277344l.320313.320313 19.761718 4.957031 32 8-64 64 35.871094 80h-99.871094l-47.671875-26.476563-24.328125-13.523437 4.558594-13.511719 11.441406-2.488281h24l-23.832031-15.832031.640625-.957032 47.191406-47.199218zm0 0" fill="#ccd1d9"/><path d="m296.160156 28.078125c33.046875 7.28125 40 24 40 24s-4.640625 13.84375-20.082031 26.722656c-13.277344 11.039063-34.636719 21.277344-67.917969 21.277344h-16l-16-32s35.28125-49.917969 80-40zm0 0" fill="#656d78"/><path d="m137.679688 107.28125c-26.601563-6.160156-70.550782-45.800781-88.917969-63.167969l2.453125-7.105469 76.945312 7.0625c34.640625 34.960938 88 24 88 24l16 32v16l-22.082031-2-41.839844-3.832031-24.078125-2.167969c-2 .007813-4.160156-.308593-6.480468-.789062zm0 0" fill="#a0d468"/><path d="m296.078125 224.078125h-32c-2.207031 0-4-1.789063-4-4 0-2.207031 1.792969-4 4-4h32c2.210937 0 4 1.792969 4 4 0 2.210937-1.789063 4-4 4zm0 0" fill="#aab2bd"/><path d="m440.078125 80.078125c-1.285156 0-2.550781-.621094-3.324219-1.78125l-16-24c-1.226562-1.832031-.730468-4.320313 1.109375-5.542969 1.824219-1.226562 4.3125-.738281 5.542969 1.109375l16 24c1.226562 1.832031.730469 4.320313-1.109375 5.542969-.679687.457031-1.449219.671875-2.21875.671875zm0 0" fill="#8cc152"/><g fill="#aab2bd"><path d="m296.078125 224.078125c-2.207031 0-4-1.789063-4-4 0-2.207031 1.792969-4 4-4 2.203125 0 4-1.796875 4-4 0-2.207031 1.792969-4 4-4 2.210937 0 4 1.792969 4 4 0 6.617187-5.382813 12-12 12zm0 0"/><path d="m304.078125 216.078125c-2.207031 0-4-1.789063-4-4v-16c0-2.207031 1.792969-4 4-4 2.210937 0 4 1.792969 4 4v16c0 2.210937-1.789063 4-4 4zm0 0"/><path d="m280.078125 160.078125c-1.023437 0-2.046875-.390625-2.832031-1.167969-1.558594-1.558594-1.558594-4.09375 0-5.652344l16-16c1.5625-1.5625 4.097656-1.5625 5.65625 0 1.5625 1.558594 1.5625 4.09375 0 5.652344l-16 16c-.773438.777344-1.796875 1.167969-2.824219 1.167969zm0 0"/><path d="m280.078125 144.078125c-1.023437 0-2.046875-.390625-2.832031-1.167969-1.558594-1.558594-1.558594-4.09375 0-5.652344l16-16c1.5625-1.5625 4.097656-1.5625 5.65625 0 1.5625 1.558594 1.5625 4.09375 0 5.652344l-16 16c-.773438.777344-1.796875 1.167969-2.824219 1.167969zm0 0"/><path d="m232.078125 224.078125c-1.796875 0-3.429687-1.207031-3.878906-3.03125l-10-40c-.527344-2.144531.769531-4.3125 2.914062-4.847656 2.101563-.527344 4.320313.769531 4.847657 2.914062l10 40c.527343 2.144531-.769532 4.3125-2.914063 4.847657-.320313.078124-.648437.117187-.96875.117187zm0 0"/><path d="m248.078125 224.078125c-1.796875 0-3.429687-1.207031-3.878906-3.03125l-8-32c-.527344-2.144531.769531-4.3125 2.914062-4.847656 2.101563-.519531 4.3125.769531 4.847657 2.914062l8 32c.527343 2.144531-.769532 4.3125-2.914063 4.847657-.320313.078124-.648437.117187-.96875.117187zm0 0"/><path d="m208.078125 200.078125h-8c-2.207031 0-4-1.789063-4-4 0-2.207031 1.792969-4 4-4h8c2.210937 0 4 1.792969 4 4 0 2.210937-1.789063 4-4 4zm0 0"/></g><path d="m76.160156 204.078125-5.222656-22.796875 89.222656-33.203125 48 32zm0 0" fill="#e6e9ed"/><path d="m55.214844 41.015625c0 2.210937-1.789063 4-4 4-2.207032 0-4-1.789063-4-4 0-2.207031 1.792968-4 4-4 2.210937 0 4 1.792969 4 4zm0 0" fill="#a0d468"/><path d="m416.207031 4.078125c0 2.210937-1.789062 4-4 4-2.207031 0-4-1.789063-4-4 0-2.207031 1.792969-4 4-4 2.210938 0 4 1.792969 4 4zm0 0" fill="#a0d468"/><path d="m456.335938 106.078125c0 2.210937-1.789063 4-4 4-2.210938 0-4-1.789063-4-4 0-2.207031 1.789062-4 4-4 2.210937 0 4 1.792969 4 4zm0 0" fill="#a0d468"/></svg>