<?xml version="1.0" encoding="UTF-8" standalone="no"?>
<svg
   xmlns:dc="http://purl.org/dc/elements/1.1/"
   xmlns:cc="http://creativecommons.org/ns#"
   xmlns:rdf="http://www.w3.org/1999/02/22-rdf-syntax-ns#"
   xmlns:svg="http://www.w3.org/2000/svg"
   xmlns="http://www.w3.org/2000/svg"
   xmlns:sodipodi="http://sodipodi.sourceforge.net/DTD/sodipodi-0.dtd"
   xmlns:inkscape="http://www.inkscape.org/namespaces/inkscape"
   height="498pt"
   viewBox="0 -59 498.784 498"
   width="498pt"
   version="1.1"
   id="svg4897"
   sodipodi:docname="commuter.svg"
   inkscape:version="0.92.4 (5da689c313, 2019-01-14)">
  <metadata
     id="metadata4903">
    <rdf:RDF>
      <cc:Work
         rdf:about="">
        <dc:format>image/svg+xml</dc:format>
        <dc:type
           rdf:resource="http://purl.org/dc/dcmitype/StillImage" />
        <dc:title></dc:title>
      </cc:Work>
    </rdf:RDF>
  </metadata>
  <defs
     id="defs4901" />
  <sodipodi:namedview
     pagecolor="#ffffff"
     bordercolor="#666666"
     borderopacity="1"
     objecttolerance="10"
     gridtolerance="10"
     guidetolerance="10"
     inkscape:pageopacity="0"
     inkscape:pageshadow="2"
     inkscape:window-width="1366"
     inkscape:window-height="705"
     id="namedview4899"
     showgrid="false"
     inkscape:zoom="1.0052843"
     inkscape:cx="262.82851"
     inkscape:cy="346.11631"
     inkscape:window-x="-8"
     inkscape:window-y="-8"
     inkscape:window-maximized="1"
     inkscape:current-layer="svg4897" />
  <path
     d="m396.96875 56.699219-28.96875-12.742188v176.167969c0 11.679688-3.519531 22.398438-9.519531 31.277344-10 14.800781-26.71875 24.480468-45.832031 24.722656h-72.640626c-22.078124 0-40-17.921875-40-40l24-52.105469c0-8 0-3.886719 0-3.886719h-152v16l-48 41.117188-8 6.882812 12.160157 12.160157 1.128906 1.367187c16.398437-13.367187 38.480469-21.519531 62.71875-21.519531 50.878906 0 92 35.839844 92 80h176.023437c8.800782 0 16.882813-2.320313 24-6.402344-.320312-17.679687 44.386719-57.34375 53.503907-57.582031zm0 0"
     fill="#8cc152"
     id="path4869"
     style="fill:#c83737" />
  <path
     d="m72 196.132812-48 41.117188v-25.117188zm0 0"
     fill="#ed5565"
     id="path4871" />
  <path
     d="m317.769531 36.449219c4.238281-1.277344 8.71875 1.203125 9.917969 5.441406 1.28125 4.242187-1.121094 8.640625-5.359375 9.921875-4.238281 1.277344-8.71875-1.203125-10-5.441406-1.199219-4.238282 1.199219-8.632813 5.441406-9.921875zm0 0"
     fill="#656d78"
     id="path4873" />
  <path
     d="m327.6875 41.890625c-1.199219-4.230469-5.679688-6.71875-9.917969-5.441406l35.125-10.316407c-.558593 1.839844-.878906 3.917969-.878906 6 0 3.679688.960937 7.117188 2.71875 10.078126l-32.398437 9.601562c4.230468-1.28125 6.632812-5.679688 5.351562-9.921875zm0 0"
     fill="#545c66"
     id="path4875" />
  <path
     d="m236 171.988281v-47.945312c0-2.207031-1.792969-4-4-4h-7.992188c-2.207031 0-4 1.792969-4 4 0 2.199219-1.800781 4-4 4h-144.007812c-6.617188 0-12 5.382812-12 12v31.992187c0 6.617188 5.382812 12 12 12 .015625 0 .023438-.007812.039062-.007812h151.96875c6.617188 0 12-5.382813 12-12 0-.015625-.007812-.023438-.007812-.039063zm0 0"
     fill="#656d78"
     id="path4877" />
  <path
     d="m156.015625 316.132812c0 35.351563-28.660156 64.015626-64.015625 64.015626s-64.015625-28.664063-64.015625-64.015626c0-35.355468 28.660156-64.019531 64.015625-64.019531s64.015625 28.664063 64.015625 64.019531zm0 0"
     fill="#656d78"
     id="path4879" />
  <path
     d="m124 316.132812c0 17.671876-14.328125 32-32 32s-32-14.328124-32-32c0-17.675781 14.328125-32 32-32s32 14.324219 32 32zm0 0"
     fill="#e6e9ed"
     id="path4881" />
  <path
     d="m496.007812 316.125c0 35.351562-28.660156 64.015625-64.015624 64.015625-35.355469 0-64.015626-28.664063-64.015626-64.015625 0-35.355469 28.660157-64.019531 64.015626-64.019531 35.355468 0 64.015624 28.664062 64.015624 64.019531zm0 0"
     fill="#656d78"
     id="path4883" />
  <path
     d="m463.992188 316.125c0 17.671875-14.328126 32-32 32-17.671876 0-32-14.328125-32-32 0-17.675781 14.328124-32 32-32 17.671874 0 32 14.324219 32 32zm0 0"
     fill="#e6e9ed"
     id="path4885" />
  <path
     d="m418.566406 1.316406c-.910156-.753906-2.101562-1.066406-3.269531-.867187l-19.015625 3.441406c-30.695312 5.351563-31.257812 5.542969-31.578125 5.65625-5.480469 1.761719-10.0625 5.34375-12.992187 10.144531-.160157.175782-.296876.375-.421876.574219-1.984374 3.335937-3.097656 7.21875-3.234374 11.273437-.03125.191407-.046876.398438-.046876.601563v.125.128906c0 .199219.015626.402344.046876.59375.144531 4.054688 1.25 7.941407 3.234374 11.277344.117188.195313.253907.386719.40625.5625 2.929688 4.808594 7.519532 8.398437 12.953126 10.144531.375.125.9375.320313 31.609374 5.671875l19.039063 3.4375c.230469.042969.480469.066407.710937.066407.929688 0 1.832032-.328126 2.558594-.929688.914063-.757812 1.441406-1.878906 1.441406-3.070312v-55.761719c0-1.191407-.519531-2.3125-1.441406-3.070313zm0 0"
     fill="#e6e9ed"
     id="path4887" />
  <path
     d="m60 144.042969v8h176v-8zm0 0"
     fill="#545c66"
     id="path4889" />
  <g
     fill="#a0d468"
     id="g4895"
     style="fill:#782121">
    <path
       d="m92 224.132812c-50.816406 0-92 41.183594-92 92h184c0-50.808593-41.183594-92-92-92zm0 0"
       id="path4891"
       style="fill:#782121" />
    <path
       d="m404.710938 250.316406c-36.734376 15.207032-54.183594 57.34375-38.96875 94.070313l133.042968-55.105469c-15.226562-36.734375-57.34375-54.183594-94.074218-38.964844zm0 0"
       id="path4893"
       style="fill:#782121" />
  </g>
</svg>
