<?xml version="1.0" encoding="UTF-8"?>
<svg width="105px" height="65px" viewBox="0 0 105 65" version="1.1" xmlns="http://www.w3.org/2000/svg" xmlns:xlink="http://www.w3.org/1999/xlink">
    <!-- Generator: Sketch 52.1 (67048) - http://www.bohemiancoding.com/sketch -->
    <title>bike-2</title>
    <desc>Created with Sketch.</desc>
    <defs>
        <filter x="-3.6%" y="-5.4%" width="107.2%" height="110.9%" filterUnits="objectBoundingBox" id="filter-1">
            <feOffset dx="0" dy="2" in="SourceAlpha" result="shadowOffsetOuter1"></feOffset>
            <feGaussianBlur stdDeviation="2" in="shadowOffsetOuter1" result="shadowBlurOuter1"></feGaussianBlur>
            <feColorMatrix values="0 0 0 0 0   0 0 0 0 0   0 0 0 0 0  0 0 0 0.07 0" type="matrix" in="shadowBlurOuter1" result="shadowMatrixOuter1"></feColorMatrix>
            <feMerge>
                <feMergeNode in="shadowMatrixOuter1"></feMergeNode>
                <feMergeNode in="SourceGraphic"></feMergeNode>
            </feMerge>
        </filter>
    </defs>
    <g id="Page-1" stroke="none" stroke-width="1" fill="none" fill-rule="evenodd">
        <g id="Desktop-V2-Copy-3" transform="translate(-313.000000, -672.000000)">
            <g id="discover-your-bike" transform="translate(88.000000, 576.000000)">
                <g id="motor-cycles" filter="url(#filter-1)" transform="translate(109.000000, 60.000000)">
                    <g id="bike-2" transform="translate(119.000000, 38.000000)">
                        <path d="M49.4973947,56.6424545 C73.0359474,56.6424545 92.2315263,55.2718636 92.2315263,53.5877727 C92.2315263,51.9036818 73.0359474,50.5330909 49.4973947,50.5330909 C25.9614474,50.5330909 6.76586842,51.9036818 6.76586842,53.5877727 C6.76586842,55.2718636 25.9614474,56.6424545 49.4973947,56.6424545" id="Fill-1095" fill="#ACADA9"></path>
                        <path d="M17.4630789,27.4092273 C23.5854474,27.4092273 28.5510789,32.3449091 28.5510789,38.4361364 C28.5510789,44.5273636 23.5854474,49.4630455 17.4630789,49.4630455 C11.3381053,49.4630455 6.37507895,44.5273636 6.37507895,38.4361364 C6.37507895,32.3449091 11.3381053,27.4092273 17.4630789,27.4092273 Z M17.4630789,23.3907273 C9.108,23.3907273 2.33431579,30.1270909 2.33431579,38.4361364 C2.33431579,46.7451818 9.108,53.4815455 17.4630789,53.4815455 C25.8181579,53.4815455 32.5892368,46.7451818 32.5892368,38.4361364 C32.5892368,30.1270909 25.8181579,23.3907273 17.4630789,23.3907273 Z" id="Fill-1096" fill="#171615"></path>
                        <path d="M17.4630789,27.4092273 C23.5854474,27.4092273 28.5510789,32.3449091 28.5510789,38.4361364 C28.5510789,44.5273636 23.5854474,49.4630455 17.4630789,49.4630455 C11.3381053,49.4630455 6.37507895,44.5273636 6.37507895,38.4361364 C6.37507895,32.3449091 11.3381053,27.4092273 17.4630789,27.4092273 Z M17.4630789,24.3105 C9.61602632,24.3105 3.25918421,30.6323182 3.25918421,38.4361364 C3.25918421,46.2399545 9.61602632,52.5617727 17.4630789,52.5617727 C25.3075263,52.5617727 31.6669737,46.2399545 31.6669737,38.4361364 C31.6669737,30.6323182 25.3075263,24.3105 17.4630789,24.3105 Z" id="Fill-1097" fill="#403E3B"></path>
                        <path d="M17.4630789,27.4092273 C23.5854474,27.4092273 28.5510789,32.3449091 28.5510789,38.4361364 C28.5510789,44.5273636 23.5854474,49.4630455 17.4630789,49.4630455 C11.3381053,49.4630455 6.37507895,44.5273636 6.37507895,38.4361364 C6.37507895,32.3449091 11.3381053,27.4092273 17.4630789,27.4092273 Z M17.4630789,26.4350455 C10.7962105,26.4350455 5.3955,31.806 5.3955,38.4361364 C5.3955,45.0662727 10.7962105,50.4398182 17.4630789,50.4398182 C24.1273421,50.4398182 29.5306579,45.0662727 29.5306579,38.4361364 C29.5306579,31.806 24.1273421,26.4350455 17.4630789,26.4350455 Z" id="Fill-1098" fill="#FEF1AB"></path>
                        <path d="M80.5547368,38.7004091 C81.0158684,38.6149091 81.4196842,38.3454545 81.6723947,37.9516364 C81.9251053,37.5604091 82.0006579,37.0836818 81.8834211,36.6328636 C71.7593684,15.2708182 66.6973421,4.5885 66.6973421,4.5885 C63.9253421,4.99009091 62.5393421,5.19218182 62.5393421,5.19218182 C62.0391316,6.43322727 61.7890263,7.05763636 61.7890263,7.05763636 C65.736,11.7057273 68.0312368,17.5197273 68.3126053,23.5954091 C70.7198684,22.4865 71.9235,21.9294545 71.9235,21.9294545 C75.6750789,29.7021818 77.5508684,33.5885455 77.5508684,33.5885455 C77.4622895,34.3658182 77.0715,35.0783182 76.4540526,35.5705909 C75.6255789,35.625 74.9872895,36.3219545 75.0029211,37.1458636 C75.0159474,37.9723636 75.6802895,38.6434091 76.5139737,38.6693182 C79.2078158,38.6900455 80.5547368,38.7004091 80.5547368,38.7004091" id="Fill-1099" fill="#D2272F"></path>
                        <path d="M63.9722368,4.98231818 L62.5393421,5.19218182 C62.0391316,6.43322727 61.7890263,7.05763636 61.7890263,7.05763636 C65.736,11.7057273 68.0312368,17.5197273 68.3126053,23.5954091 C70.7198684,22.4865 71.9235,21.9294545 71.9235,21.9294545 C66.6217895,10.6330909 63.9722368,4.98231818 63.9722368,4.98231818" id="Fill-1100" fill="#B6252B"></path>
                        <path d="M82.4930526,27.4092273 C88.6128158,27.4092273 93.5758421,32.3449091 93.5758421,38.4361364 C93.5758421,44.5273636 88.6128158,49.4630455 82.4930526,49.4630455 C76.3680789,49.4630455 71.4050526,44.5273636 71.4050526,38.4361364 C71.4050526,32.3449091 76.3680789,27.4092273 82.4930526,27.4092273 Z M82.4930526,23.3907273 C74.1353684,23.3907273 67.3642895,30.1270909 67.3642895,38.4361364 C67.3642895,46.7451818 74.1353684,53.4815455 82.4930526,53.4815455 C90.8481316,53.4815455 97.6192105,46.7451818 97.6192105,38.4361364 C97.6192105,30.1270909 90.8481316,23.3907273 82.4930526,23.3907273 Z" id="Fill-1101" fill="#171615"></path>
                        <path d="M82.4930526,27.4092273 C88.6128158,27.4092273 93.5758421,32.3449091 93.5758421,38.4361364 C93.5758421,44.5273636 88.6128158,49.4630455 82.4930526,49.4630455 C76.3680789,49.4630455 71.4050526,44.5273636 71.4050526,38.4361364 C71.4050526,32.3449091 76.3680789,27.4092273 82.4930526,27.4092273 Z M82.4930526,24.3105 C74.646,24.3105 68.2839474,30.6323182 68.2839474,38.4361364 C68.2839474,46.2399545 74.646,52.5617727 82.4930526,52.5617727 C90.3348947,52.5617727 96.6969474,46.2399545 96.6969474,38.4361364 C96.6969474,30.6323182 90.3348947,24.3105 82.4930526,24.3105 Z" id="Fill-1102" fill="#292A28"></path>
                        <path d="M82.4930526,27.4092273 C88.6128158,27.4092273 93.5758421,32.3449091 93.5758421,38.4361364 C93.5758421,44.5273636 88.6128158,49.4630455 82.4930526,49.4630455 C76.3680789,49.4630455 71.4050526,44.5273636 71.4050526,38.4361364 C71.4050526,32.3449091 76.3680789,27.4092273 82.4930526,27.4092273 Z M82.4930526,26.4324545 C75.8261842,26.4324545 70.4228684,31.806 70.4228684,38.4361364 C70.4228684,45.0662727 75.8261842,50.4398182 82.4930526,50.4398182 C89.1573158,50.4398182 94.5580263,45.0662727 94.5580263,38.4361364 C94.5580263,31.806 89.1573158,26.4324545 82.4930526,26.4324545 Z" id="Fill-1103" fill="#FEF1AB"></path>
                        <path d="M82.4930526,42.6852273 C84.8456053,42.6852273 86.7630789,40.7757273 86.7630789,38.4361364 C86.7630789,36.0939545 84.8456053,34.1844545 82.4930526,34.1844545 C80.1378947,34.1844545 78.2178158,36.0939545 78.2178158,38.4361364 C78.2178158,40.7757273 80.1378947,42.6852273 82.4930526,42.6852273" id="Fill-1104" fill="#6F6E6B"></path>
                        <path d="M90.5433158,21.9242727 C90.5537368,22.2222273 89.7851842,22.6160455 88.209,22.6419545 C77.2382368,22.8336818 71.6030526,25.4634545 71.9235,30.9691364 C71.9834211,32.0184545 72.0902368,33.0133636 72.0042632,33.9383182 C71.9990526,33.9953182 74.5548158,37.3505455 75.0680526,37.5940909 C74.9351842,38.0267727 75.0029211,38.4957273 75.2452105,38.8791818 C73.5257368,38.6511818 71.8271053,39.4232727 70.8787895,40.8664091 C69.7767632,43.4288182 67.8436579,44.6646818 64.9961053,44.5791818 C64.7069211,43.9392273 64.7850789,43.1956364 65.1967105,42.6256364 C65.6500263,41.1488182 65.8428158,39.6046364 65.7750789,38.0604545 C64.8111316,31.9795909 67.3173947,25.8624545 72.2882368,22.1885455 C77.2564737,18.5120455 83.8425789,17.9290909 89.4465,20.5485 C90.2358947,20.9138182 90.6240789,21.3231818 90.5433158,21.9242727" id="Fill-1105" fill="#932427"></path>
                        <path d="M76.2534474,38.9931818 C76.5374211,38.9931818 76.7718947,38.76 76.7718947,38.4775909 C76.7718947,38.19 76.5374211,37.9568182 76.2534474,37.9568182 C75.9694737,37.9568182 75.735,38.19 75.735,38.4775909 C75.735,38.76 75.9694737,38.9931818 76.2534474,38.9931818" id="Fill-1106" fill="#989995"></path>
                        <path d="M70.6964211,13.0322727 C68.4194211,8.22354545 67.2809211,5.81918182 67.2809211,5.81918182 C69.9695526,6.03163636 71.3164737,6.13786364 71.3164737,6.13786364 C71.6525526,10.1978182 71.8192895,12.0814091 71.8062632,11.7938182 C71.6577632,12.3612273 71.2461316,12.8198182 70.6964211,13.0322727" id="Fill-1107" fill="#932427"></path>
                        <path d="M71.8062632,11.8223182 C71.478,8.03440909 71.3164737,6.13786364 71.3164737,6.13786364 C71.7072632,6.11713636 72.0850263,6.29072727 72.3247105,6.59645455 C72.5175,9.7755 72.6165,11.3637273 72.6165,11.3637273 C72.4836316,11.6824091 72.1501579,11.8715455 71.8062632,11.8223182" id="Fill-1108" fill="#B6252B"></path>
                        <path d="M54.0800526,37.6666364 C53.6111053,39.0916364 53.8351579,40.6513636 54.6870789,41.8898182 C55.5363947,43.1308636 56.9171842,43.9003636 58.4230263,43.9858636 C70.5088421,29.0078182 71.7567632,16.3875 62.1641842,6.12490909 C61.9140789,6.74672727 61.7890263,7.05763636 61.7890263,7.05763636 C61.0230789,18.9447273 55.4530263,26.0826818 45.0710526,28.4766818 C44.7271579,32.1531818 44.5526053,33.9901364 44.5526053,33.9901364 C49.2498947,34.1455909 51.5972368,34.2207273 51.5972368,34.2207273 C52.4074737,34.3062273 53.1421579,34.7285455 53.6189211,35.3892273 C54.0904737,36.0473182 54.2598158,36.8764091 54.0800526,37.6666364" id="Fill-1109" fill="#FFFBD8"></path>
                        <path d="M54.0800526,37.6666364 C53.6111053,39.0916364 53.8351579,40.6513636 54.6870789,41.8898182 C55.5363947,43.1308636 56.9171842,43.9003636 58.4230263,43.9858636 C68.4611053,28.8886364 69.5839737,16.5792273 61.7890263,7.05763636 C61.0230789,18.9447273 55.4530263,26.0826818 45.0710526,28.4766818 C44.7271579,32.1531818 44.5526053,33.9901364 44.5526053,33.9901364 C49.2498947,34.1455909 51.5972368,34.2207273 51.5972368,34.2207273 C52.4074737,34.3062273 53.1421579,34.7285455 53.6189211,35.3892273 C54.0904737,36.0473182 54.2598158,36.8764091 54.0800526,37.6666364" id="Fill-1110" fill="#FEF1AB"></path>
                        <path d="M62.5393421,5.19218182 C65.3113421,4.79059091 66.6973421,4.5885 66.6973421,4.5885 C65.9366053,3.2205 65.5588421,2.5365 65.5588421,2.5365 C63.5345526,2.93809091 62.5237105,3.14018182 62.5237105,3.14018182 C62.7503684,3.88636364 62.7555789,4.57036364 62.5393421,5.19218182" id="Fill-1111" fill="#C3C4BF"></path>
                        <path d="M62.5237105,3.14018182 C64.548,2.73859091 65.5588421,2.5365 65.5588421,2.5365 C66.1346053,2.48209091 66.3195789,2.29295455 66.1059474,1.96131818 C65.6448158,0.891272727 65.4129474,0.354954545 65.4129474,0.354954545 C62.9666053,1.06227273 61.7473421,1.41722727 61.7473421,1.41722727 C62.2657895,2.565 62.5237105,3.14018182 62.5237105,3.14018182" id="Fill-1112" fill="#403E3B"></path>
                        <path d="M59.5823684,5.38390909 C60.1972105,5.38390909 60.6974211,4.88645455 60.6974211,4.26981818 C60.6974211,3.65836364 60.1972105,3.15831818 59.5823684,3.15831818 C58.9649211,3.15831818 58.4621053,3.65836364 58.4621053,4.26981818 C58.4621053,4.88645455 58.9649211,5.38390909 59.5823684,5.38390909" id="Fill-1113" fill="#575653"></path>
                        <path d="M27.3604737,17.9964545 C29.0799474,21.5978182 34.9808684,25.0929545 45.0710526,28.4766818 C45.3055263,28.5362727 45.5035263,28.6917273 45.6077368,28.9093636 C45.7119474,29.127 45.7119474,29.3809091 45.6077368,29.5959545 C45.0684474,33.0418636 44.8001053,34.7648182 44.8001053,34.7648182 C44.6854737,35.0653636 44.3598158,35.2285909 44.0497895,35.1379091 C35.9838947,35.0239091 31.9509474,34.9643182 31.9509474,34.9643182 C31.0807895,34.6145455 30.4346842,33.8631818 30.2210526,32.9563636 C28.4546842,27.3418636 23.1607895,23.5695 17.2494474,23.7145909 C11.3355,23.8622727 6.23439474,27.8911364 4.75721053,33.5885455 C4.51752632,34.2492273 3.94697368,34.7337273 3.25397368,34.8710455 C2.56097368,35.0057727 1.84973684,34.77 1.37818421,34.2492273 C1.74292105,28.2046364 5.01252632,22.7041364 10.1683421,19.4810455 C15.3241579,16.2553636 21.7252895,15.7060909 27.3604737,17.9964545" id="Fill-1114" fill="#D2272F"></path>
                        <path d="M27.3604737,17.9964545 C28.6761316,17.0093182 29.5827632,16.4989091 30.0751579,16.473 C37.4298158,16.6284545 42.0776053,16.2527727 44.0211316,15.3563182 C44.5526053,15.9081818 44.7688421,16.6906364 44.5942895,17.4368182 C44.4197368,18.1881818 43.7345526,18.5535 43.1561842,19.0587273 C40.8896053,21.0304091 40.4232632,24.3778636 41.4549474,27.1915909 C33.5583947,24.2094545 28.8637105,21.1418182 27.3604737,17.9964545" id="Fill-1115" fill="#B6252B"></path>
                        <path d="M44.8001053,34.7648182 C50.6150526,34.0937727 53.3792368,35.3762727 53.0874474,38.6097273 C52.5038684,42.0064091 47.5538684,43.1541818 38.2452632,42.0556364 C38.2400526,38.9750455 38.2739211,36.6432273 38.3468684,35.055 L44.0497895,35.1379091 C44.3598158,35.2285909 44.6854737,35.0653636 44.8001053,34.7648182" id="Fill-1116" fill="#C3C4BF"></path>
                        <path d="M50.1148421,39.558 C51.084,39.558 51.876,38.7703636 51.876,37.8065455 C51.876,36.8427273 51.084,36.0550909 50.1148421,36.0550909 C49.1430789,36.0550909 48.3536842,36.8427273 48.3536842,37.8065455 C48.3536842,38.7703636 49.1430789,39.558 50.1148421,39.558" id="Fill-1117" fill="#6F6E6B"></path>
                        <path d="M31.9509474,34.9643182 C31.2397105,34.6793182 30.6717632,34.1222727 30.3721579,33.4201364 C20.8577368,33.3786818 16.1031316,33.3553636 16.1031316,33.3553636 C13.4535789,33.5989091 11.4266842,35.8167273 11.4423158,38.4646364 C11.4579474,41.1125455 13.5082895,43.3070455 16.1630526,43.5220909 C30.8853947,42.5453182 38.2452632,42.0556364 38.2452632,42.0556364 C38.2296316,39.7238182 38.2635,37.3894091 38.3468684,35.055 C34.0820526,34.9954091 31.9509474,34.9643182 31.9509474,34.9643182" id="Fill-1118" fill="#932427"></path>
                        <path d="M54.2728421,41.1669545 C52.5768158,43.1645455 48.5568947,43.8485455 42.2052632,43.6905 C37.6486579,43.5790909 34.9496053,43.2837273 34.1002895,42.3302727 L38.2452632,42.0556364 C47.5538684,43.1541818 52.5038684,42.0064091 53.0874474,38.6097273 C53.3792368,35.3762727 50.6150526,34.0937727 44.8001053,34.7648182 L44.9199474,34.0030909 L51.5972368,34.2207273 C52.4074737,34.3062273 53.1421579,34.7285455 53.6189211,35.3892273 C54.0904737,36.0473182 54.2598158,36.8764091 54.0800526,37.6666364 C53.6970789,38.8247727 53.7752368,40.0735909 54.2728421,41.1669545" id="Fill-1119" fill="#575653"></path>
                        <path d="M38.0915526,36.9152727 L16.6684737,36.9152727 C15.9285789,36.9152727 15.3241579,37.5163636 15.3241579,38.2495909 L15.3241579,38.2521818 C15.3241579,38.9854091 15.9285789,39.5839091 16.6684737,39.5839091 L38.0915526,39.5839091 C38.8314474,39.5839091 39.4332632,38.9854091 39.4332632,38.2521818 L39.4332632,38.2495909 C39.4332632,37.5163636 38.8314474,36.9152727 38.0915526,36.9152727" id="Fill-1120" fill="#6B1F22"></path>
                        <path d="M46.6211842,15.2371364 L44.0211316,15.3563182 C42.0776053,16.2527727 37.4298158,16.6284545 30.0751579,16.473 C30.0517105,16.4755909 30.0256579,16.4781818 29.9996053,16.4807727 C28.8637105,15.2863636 28.6162105,13.5038182 29.3873684,12.0477273 C34.8375789,10.4232273 40.5926053,10.1097273 46.1887105,11.1305455 C47.1969474,12.2679545 47.3715,13.9157727 46.6211842,15.2371364" id="Fill-1121" fill="#A37731"></path>
                        <path d="M25.6905,15.2915455 L10.9082368,15.2915455 L10.9082368,17.4186818 L25.6905,17.4186818 C26.2766842,17.4186818 26.7586579,16.9419545 26.7586579,16.359 L26.7586579,16.3564091 C26.7586579,15.7708636 26.2766842,15.2915455 25.6905,15.2915455" id="Fill-1122" fill="#A37731"></path>
                        <path d="M60.2623421,5.15331818 C60.7208684,4.80613636 60.8355,4.16359091 60.5280789,3.67909091 C60.2180526,3.18940909 59.5875789,3.021 59.0717368,3.28268182 C61.6066579,1.93540909 62.8702105,1.26436364 62.8702105,1.26436364 C63.1828421,1.28509091 63.4642105,1.46386364 63.6075,1.74109091 C63.7507895,2.01572727 63.7403684,2.34736364 63.5814474,2.61422727 C61.4034474,4.26981818 60.2962105,5.11963636 60.2623421,5.15331818" id="Fill-1123" fill="#989995"></path>
                    </g>
                </g>
            </g>
        </g>
    </g>
</svg>