<?xml version="1.0" encoding="UTF-8"?>
<svg width="101px" height="67px" viewBox="0 0 101 67" version="1.1" xmlns="http://www.w3.org/2000/svg" xmlns:xlink="http://www.w3.org/1999/xlink">
    <!-- Generator: Sketch 52.1 (67048) - http://www.bohemiancoding.com/sketch -->
    <title>Group</title>
    <desc>Created with Sketch.</desc>
    <defs>
        <filter x="-3.6%" y="-5.4%" width="107.2%" height="110.9%" filterUnits="objectBoundingBox" id="filter-1">
            <feOffset dx="0" dy="2" in="SourceAlpha" result="shadowOffsetOuter1"></feOffset>
            <feGaussianBlur stdDeviation="2" in="shadowOffsetOuter1" result="shadowBlurOuter1"></feGaussianBlur>
            <feColorMatrix values="0 0 0 0 0   0 0 0 0 0   0 0 0 0 0  0 0 0 0.07 0" type="matrix" in="shadowBlurOuter1" result="shadowMatrixOuter1"></feColorMatrix>
            <feMerge>
                <feMergeNode in="shadowMatrixOuter1"></feMergeNode>
                <feMergeNode in="SourceGraphic"></feMergeNode>
            </feMerge>
        </filter>
    </defs>
    <g id="Page-1" stroke="none" stroke-width="1" fill="none" fill-rule="evenodd">
        <g id="Desktop-V2-Copy-3" transform="translate(-675.000000, -669.000000)">
            <g id="discover-your-bike" transform="translate(88.000000, 576.000000)">
                <g id="budget-bikes-copy" filter="url(#filter-1)" transform="translate(475.000000, 60.000000)">
                    <g id="Group" transform="translate(114.000000, 35.000000)">
                        <path d="M47.9973333,58.4663182 C72.0906667,58.4663182 91.7386667,57.0449545 91.7386667,55.3044545 C91.7386667,53.5612727 72.0906667,52.1399091 47.9973333,52.1399091 C23.9066667,52.1399091 4.25866667,53.5612727 4.25866667,55.3044545 C4.25866667,57.0449545 23.9066667,58.4663182 47.9973333,58.4663182" id="Fill-258" fill="#ACADA9"></path>
                        <path d="M19.1733333,55.6986818 C24.9546667,55.6986818 29.6693333,50.9572273 29.6693333,45.1457273 C29.6693333,39.3315455 24.9546667,34.5900909 19.1733333,34.5900909 C13.3946667,34.5900909 8.67733333,39.3315455 8.67733333,45.1457273 C8.67733333,50.9572273 13.3946667,55.6986818 19.1733333,55.6986818" id="Fill-259" fill="#403E3B"></path>
                        <path d="M19.1733333,53.3708636 C23.6773333,53.3708636 27.352,49.6753182 27.352,45.1457273 C27.352,40.6134545 23.6773333,36.9179091 19.1733333,36.9179091 C14.6693333,36.9179091 10.9946667,40.6134545 10.9946667,45.1457273 C10.9946667,49.6753182 14.6693333,53.3708636 19.1733333,53.3708636" id="Fill-260" fill="#D9DAD5"></path>
                        <path d="M19.1733333,52.0809091 C22.9733333,52.0809091 26.072,48.9646364 26.072,45.1457273 C26.072,41.3214545 22.9733333,38.2051818 19.1733333,38.2051818 C15.3733333,38.2051818 12.2746667,41.3214545 12.2746667,45.1457273 C12.2746667,48.9646364 15.3733333,52.0809091 19.1733333,52.0809091" id="Fill-261" fill="#6F6E6B"></path>
                        <path d="M19.1733333,50.0695455 C21.872,50.0695455 24.0693333,47.8570455 24.0693333,45.1457273 C24.0693333,42.4317273 21.872,40.2192273 19.1733333,40.2192273 C16.4746667,40.2192273 14.2773333,42.4317273 14.2773333,45.1457273 C14.2773333,47.8570455 16.4746667,50.0695455 19.1733333,50.0695455" id="Fill-262" fill="#F0EFEC"></path>
                        <path d="M83.752,55.6986818 C89.5306667,55.6986818 94.2453333,50.9572273 94.2453333,45.1457273 C94.2453333,39.3315455 89.5306667,34.5900909 83.752,34.5900909 C77.9706667,34.5900909 73.256,39.3315455 73.256,45.1457273 C73.256,50.9572273 77.9706667,55.6986818 83.752,55.6986818" id="Fill-263" fill="#403E3B"></path>
                        <path d="M83.752,53.3708636 C88.256,53.3708636 91.9306667,49.6753182 91.9306667,45.1457273 C91.9306667,40.6134545 88.256,36.9179091 83.752,36.9179091 C79.2453333,36.9179091 75.5706667,40.6134545 75.5706667,45.1457273 C75.5706667,49.6753182 79.2453333,53.3708636 83.752,53.3708636" id="Fill-264" fill="#D9DAD5"></path>
                        <path d="M83.752,52.0809091 C87.552,52.0809091 90.6506667,48.9646364 90.6506667,45.1457273 C90.6506667,41.3214545 87.552,38.2051818 83.752,38.2051818 C79.952,38.2051818 76.8506667,41.3214545 76.8506667,45.1457273 C76.8506667,48.9646364 79.952,52.0809091 83.752,52.0809091" id="Fill-265" fill="#6F6E6B"></path>
                        <path d="M83.752,50.0695455 C86.4453333,50.0695455 88.648,47.8570455 88.648,45.1457273 C88.648,42.4317273 86.4453333,40.2192273 83.752,40.2192273 C81.0533333,40.2192273 78.8533333,42.4317273 78.8533333,45.1457273 C78.8533333,47.8570455 81.0533333,50.0695455 83.752,50.0695455" id="Fill-266" fill="#F0EFEC"></path>
                        <path d="M68.5226667,46.0655909 C67.1386667,39.6748182 70.52,33.2035909 76.5386667,30.7229091 C82.5573333,28.2449091 89.4773333,30.4681364 92.9546667,35.9980455 L79.7146667,35.9980455 C76.2426667,38.3285455 74.1653333,42.2493636 74.1733333,46.4437273 C72.4,47.5298636 70.136,47.3796818 68.5226667,46.0655909" id="Fill-267" fill="#D2263B"></path>
                        <path d="M71.2106667,34.7054091 C74.2826667,26.4373636 72.632,17.1421818 66.904,10.4537273 C66.1573333,10.5127273 65.4853333,10.9310909 65.1013333,11.5747273 C64.7146667,12.2210455 64.664,13.0121818 64.9653333,13.7014091 C69.7386667,23.8386818 66.664,35.9551364 57.648,42.5497273 C48.6053333,42.5497273 44.0853333,42.5524091 44.0853333,42.5524091 C42.864,43.5259091 42.2533333,44.0113182 42.2533333,44.0113182 C39.56,44.1936818 38.216,44.2848636 38.216,44.2848636 C35.36,44.2848636 33.936,44.2848636 33.936,44.2848636 C33.216,46.433 32.8613333,47.5057273 32.8613333,47.5057273 C50.832,47.613 59.8186667,47.6666364 59.8186667,47.6666364 C65.1066667,44.9499545 69.1786667,40.3184545 71.2106667,34.7054091" id="Fill-268" fill="#93222F"></path>
                        <path d="M71.2106667,34.7054091 C72.72,30.6478182 73.1173333,26.2523182 72.3573333,21.9882273 C73.7573333,23.7501818 75.5653333,25.1366818 77.632,26.019 C77.7466667,28.8563636 77.8026667,30.2777273 77.8026667,30.2777273 C75.2133333,31.0500909 72.912,32.5921364 71.2106667,34.7054091" id="Fill-269" fill="#B62536"></path>
                        <path d="M65.8666667,10.7943182 C73.4666667,22.3207727 70.5466667,37.8404545 59.28,45.7732727 L33.3973333,45.8939545 L33.936,44.2848636 L38.216,44.2848636 L42.2533333,44.0113182 L44.0853333,42.5524091 L57.648,42.5497273 C66.664,35.9551364 69.7386667,23.8386818 64.9653333,13.7014091 C64.664,13.0121818 64.7146667,12.2210455 65.1013333,11.5747273 C65.2933333,11.2529091 65.56,10.9874091 65.8666667,10.7943182" id="Fill-270" fill="#6B1E25"></path>
                        <path d="M33.936,44.2848636 C36.7866667,44.2848636 38.216,44.2848636 38.216,44.2848636 C42.3253333,33.5629545 39.5333333,27.0407727 29.8426667,24.721 C23.3493333,23.3908182 16.6,24.8738636 11.2506667,28.8107727 C5.904,32.7476818 2.45333333,38.7683636 1.752,45.3951364 C22.848,45.7276818 33.3973333,45.8939545 33.3973333,45.8939545 C33.7573333,44.8212273 33.936,44.2848636 33.936,44.2848636" id="Fill-271" fill="#D2263B"></path>
                        <path d="M33.3973333,45.8939545 C33.7573333,44.8212273 33.936,44.2848636 33.936,44.2848636 C36.8773333,34.4720909 34.8773333,29.264 28.0106667,28.1322727 C22.416,27.2097273 16.6746667,28.2556364 12.0186667,31.5140455 C7.36533333,34.7697727 4.224,39.7874545 3.31466667,45.4192727 C23.368,45.7357273 33.3973333,45.8939545 33.3973333,45.8939545" id="Fill-272" fill="#D83C4D"></path>
                        <path d="M45.1466667,25.5389545 C40.6426667,30.1570455 40.1893333,37.4006364 44.0853333,42.5524091 L42.2533333,44.0113182 L38.216,44.2848636 C42.3253333,33.5629545 39.5333333,27.0407727 29.8426667,24.721 C23.6346667,23.4498182 17.1946667,24.7505 11.968,28.3039091 C13.6266667,26.019 15.816,24.1792727 18.3466667,22.9402727 C28.0346667,22.9402727 37.7226667,22.9402727 47.4106667,22.9402727 C47.4666667,23.5892727 47.2586667,24.2355909 46.832,24.7263636 C46.4053333,25.2171364 45.7946667,25.5094545 45.1466667,25.5389545" id="Fill-273" fill="#B62536"></path>
                        <path d="M18.024,22.9402727 L47.6746667,22.9402727 C48.744,22.9402727 49.6133333,22.066 49.6133333,20.9932727 L49.6133333,17.7455909 C49.6133333,16.6728636 48.744,15.7959091 47.6746667,15.7959091 L18.024,15.7959091 C16.96,15.7959091 16.088,16.6728636 16.088,17.7455909 L16.088,20.9932727 C16.088,22.066 16.96,22.9402727 18.024,22.9402727" id="Fill-274" fill="#6F6E6B"></path>
                        <path d="M49.4826667,17.0402727 C49.2,16.3161818 48.496,15.7959091 47.6746667,15.7959091 L18.024,15.7959091 C17.208,15.7959091 16.5013333,16.3161818 16.2186667,17.0402727 C16.5013333,17.7697273 17.208,18.2846364 18.024,18.2846364 L47.6746667,18.2846364 C48.496,18.2846364 49.2,17.7697273 49.4826667,17.0402727" id="Fill-275" fill="#575653"></path>
                        <path d="M66.904,10.4537273 C65.7573333,10.5449091 64.8506667,11.4674545 64.776,12.6233182 C63.0826667,9.263 62.0453333,7.16313636 61.664,6.32640909 C63.6053333,2.76227273 66.7466667,0.834045455 71.0826667,0.533681818 C72.992,0.887681818 74.4826667,2.39486364 74.8213333,4.31772727 C75.16,6.24059091 74.2773333,8.16881818 72.6026667,9.16109091 C70.9306667,10.1533636 68.8213333,9.99245455 67.3173333,8.7615 C66.7093333,9.07795455 66.5733333,9.64381818 66.904,10.4537273" id="Fill-276" fill="#B62536"></path>
                        <path d="M65.136,8.03204545 C66.0853333,8.03204545 66.8586667,7.25431818 66.8586667,6.29959091 C66.8586667,5.34486364 66.0853333,4.56713636 65.136,4.56713636 C64.1866667,4.56713636 63.4133333,5.34486364 63.4133333,6.29959091 C63.4133333,7.25431818 64.1866667,8.03204545 65.136,8.03204545" id="Fill-277" fill="#989995"></path>
                        <path d="M71.0826667,9.72963636 C73.2906667,9.32468182 74.8906667,7.38840909 74.8906667,5.133 C74.8906667,2.87490909 73.2906667,0.941318182 71.0826667,0.533681818 C71.0826667,6.667 71.0826667,9.72963636 71.0826667,9.72963636" id="Fill-278" fill="#F7CD23"></path>
                        <path d="M28.1093333,34.2012273 L13.6853333,34.2012273 C13.2,34.2012273 12.7973333,34.6035 12.7973333,35.0942727 C12.7973333,35.5877273 13.2,35.9873182 13.6853333,35.9873182 L28.1093333,35.9873182 C28.5973333,35.9873182 28.9973333,35.5877273 28.9973333,35.0942727 C28.9973333,34.6035 28.5973333,34.2012273 28.1093333,34.2012273" id="Fill-279" fill="#93222F"></path>
                        <path d="M27.2773333,37.2236364 L12.8533333,37.2236364 C12.3626667,37.2236364 11.9653333,37.6259091 11.9653333,38.1166818 C11.9653333,38.6101364 12.3626667,39.0097273 12.8533333,39.0097273 L27.2773333,39.0097273 C27.7653333,39.0097273 28.1626667,38.6101364 28.1626667,38.1166818 C28.1626667,37.6259091 27.7653333,37.2236364 27.2773333,37.2236364" id="Fill-280" fill="#93222F"></path>
                        <path d="M26.504,40.2299545 L12.0826667,40.2299545 C11.592,40.2299545 11.1946667,40.6322273 11.1946667,41.123 C11.1946667,41.6137727 11.592,42.0160455 12.0826667,42.0160455 L26.504,42.0160455 C26.9946667,42.0160455 27.392,41.6137727 27.392,41.123 C27.392,40.6322273 26.9946667,40.2299545 26.504,40.2299545" id="Fill-281" fill="#93222F"></path>
                    </g>
                </g>
            </g>
        </g>
    </g>
</svg>