<?xml version="1.0" encoding="UTF-8"?>
<svg width="102px" height="56px" viewBox="0 0 102 56" version="1.1" xmlns="http://www.w3.org/2000/svg" xmlns:xlink="http://www.w3.org/1999/xlink">
    <!-- Generator: Sketch 52.1 (67048) - http://www.bohemiancoding.com/sketch -->
    <title>bike3</title>
    <desc>Created with Sketch.</desc>
    <g id="Page-1" stroke="none" stroke-width="1" fill="none" fill-rule="evenodd">
        <g id="Desktop-V2-Copy-3" transform="translate(-1044.000000, -678.000000)">
            <g id="discover-your-bike" transform="translate(88.000000, 576.000000)">
                <g id="motor-cycles-copy" transform="translate(841.000000, 60.000000)">
                    <g id="bike3" transform="translate(115.000000, 42.000000)">
                        <path d="M51,55.2216 C78.6349167,55.2216 101.1755,53.739 101.1755,51.9204 C101.1755,50.1004 78.6349167,48.6192 51,48.6192 C23.3636667,48.6192 0.8245,50.1004 0.8245,51.9204 C0.8245,53.739 23.3636667,55.2216 51,55.2216" id="Fill-261" fill="#ACADA9"></path>
                        <path d="M87.4565,27.055 C93.4985833,27.055 98.396,31.8948 98.396,37.8658 C98.396,43.8368 93.4985833,48.678 87.4565,48.678 C81.4144167,48.678 76.517,43.8368 76.517,37.8658 C76.517,31.8948 81.4144167,27.055 87.4565,27.055 Z M87.4565,23.5956 C79.4820833,23.5956 73.0164167,29.9852 73.0164167,37.8658 C73.0164167,45.7478 79.4820833,52.136 87.4565,52.136 C95.4323333,52.136 101.896583,45.7478 101.896583,37.8658 C101.896583,29.9852 95.4323333,23.5956 87.4565,23.5956 Z" id="Fill-262" fill="#403E3B"></path>
                        <path d="M87.4565,27.055 C93.4985833,27.055 98.396,31.8948 98.396,37.8658 C98.396,43.8368 93.4985833,48.678 87.4565,48.678 C81.4144167,48.678 76.517,43.8368 76.517,37.8658 C76.517,31.8948 81.4144167,27.055 87.4565,27.055 Z M87.4565,25.1426 C80.34625,25.1426 74.58325,30.8378 74.58325,37.8658 C74.58325,44.8924 80.34625,50.589 87.4565,50.589 C94.56675,50.589 100.331167,44.8924 100.331167,37.8658 C100.331167,30.8378 94.56675,25.1426 87.4565,25.1426 Z" id="Fill-263" fill="#D9DAD5"></path>
                        <path d="M87.4565,27.055 C93.4985833,27.055 98.396,31.8948 98.396,37.8658 C98.396,43.8368 93.4985833,48.678 87.4565,48.678 C81.4144167,48.678 76.517,43.8368 76.517,37.8658 C76.517,31.8948 81.4144167,27.055 87.4565,27.055 Z M87.4565,26.3564 C81.0248333,26.3564 75.8100833,31.5098 75.8100833,37.8658 C75.8100833,44.2232 81.0248333,49.3766 87.4565,49.3766 C93.8895833,49.3766 99.1043333,44.2232 99.1043333,37.8658 C99.1043333,31.5098 93.8895833,26.3564 87.4565,26.3564 Z" id="Fill-264" fill="#989995"></path>
                        <path d="M76.6289167,3.2144 C75.7293333,1.589 75.2788333,0.777 75.2788333,0.777 C84.0735,6.1446 88.47225,8.8284 88.47225,8.8284 C91.6611667,13.1222 92.9871667,15.5176 92.4488333,16.0174 C91.3381667,17.36 90.7828333,18.0306 90.7828333,18.0306 C81.1339167,18.011 76.30875,18.0012 76.30875,18.0012 C82.8424167,19.299 86.1106667,19.9486 86.1106667,19.9486 C76.0934167,34.9818 71.0869167,42.4984 71.0869167,42.4984 C63.2031667,37.2414 59.2605833,34.6122 59.2605833,34.6122 C58.2561667,32.2392 57.7546667,31.0548 57.7546667,31.0548 C66.7703333,21.672 71.281,16.9806 71.281,16.9806 C66.2405,14.8792 63.7216667,13.8278 63.7216667,13.8278 C69.0653333,10.829 71.7371667,9.3296 71.7371667,9.3296 C71.7924167,11.4254 71.8193333,12.474 71.8193333,12.474 C75.9914167,12.7946 80.15075,11.7026 83.6116667,9.3772 C83.2915,8.7528 83.1314167,8.4406 83.1314167,8.4406 C78.7978333,4.9574 76.6289167,3.2144 76.6289167,3.2144" id="Fill-265" fill="#B6252B"></path>
                        <path d="M88.47225,8.8284 C79.6775833,3.4608 75.2788333,0.777 75.2788333,0.777 C77.5185833,0.8204 78.6391667,0.8414 78.6391667,0.8414 C82.399,2.8672 85.7338333,5.5776 88.47225,8.8284" id="Fill-266" fill="#A2D2C8"></path>
                        <path d="M65.0703333,14.3906 C66.44875,14.966 67.1386667,15.2544 67.1386667,15.2544 C58.67975,22.0822 54.451,25.4968 54.451,25.4968 C57.6583333,31.5742 59.2605833,34.6122 59.2605833,34.6122 C67.14575,39.8692 71.0869167,42.4984 71.0869167,42.4984 C73.7176667,45.8598 75.0309167,47.5398 75.0309167,47.5398 C53.482,46.424 42.7054167,45.8682 42.7054167,45.8682 C48.0703333,41.0704 50.7520833,38.6722 50.7520833,38.6722 C52.5271667,39.0922 54.3773333,38.3754 55.39025,36.876 C56.4031667,35.3766 56.3635,33.4124 55.2925,31.9536 C54.2186667,30.4948 52.3415833,29.8508 50.5863333,30.3394 C49.011,26.7848 48.22475,25.0068 48.22475,25.0068 C59.4546667,17.9298 65.0703333,14.3906 65.0703333,14.3906" id="Fill-267" fill="#D2272F"></path>
                        <path d="M70.18025,11.1174 C69.75525,11.1286 69.4195,11.4772 69.4294167,11.8986 C69.44075,12.3186 69.7935,12.6504 70.2199167,12.6392 C70.6449167,12.6294 70.9806667,12.2794 70.9693333,11.8594 C70.958,11.438 70.6038333,11.1076 70.18025,11.1174" id="Fill-268" fill="#575653"></path>
                        <path d="M70.7639167,12.397 C71.026,12.117 71.0401667,11.69 70.7936667,11.396 C70.5485833,11.1006 70.1221667,11.0306 69.7935,11.2308 C71.75275,9.548 72.73025,8.7066 72.73025,8.7066 C73.1099167,8.6296 73.4995,8.771 73.7375,9.0734 C73.9755,9.373 74.0208333,9.7804 73.8536667,10.1248 C71.7938333,11.6396 70.7639167,12.397 70.7639167,12.397" id="Fill-269" fill="#403E3B"></path>
                        <path d="M72.73025,8.7066 C72.3024167,9.0748 72.0870833,9.2596 72.0870833,9.2596 C72.24575,8.561 72.5460833,8.0626 72.9838333,7.763 C73.933,7.665 74.4075833,7.6146 74.4075833,7.6146 C74.8155833,7.5124 75.2490833,7.6272 75.5508333,7.917 C75.8511667,8.2082 75.97725,8.6324 75.8851667,9.0384 C74.6965833,10.0086 74.103,10.4944 74.103,10.4944 C73.6199167,10.4818 73.3776667,10.4748 73.3776667,10.4748 C73.695,10.2424 73.8536667,10.1248 73.8536667,10.1248 C74.0208333,9.7804 73.9755,9.373 73.7375,9.072 C73.4995,8.771 73.1099167,8.6296 72.73025,8.7066" id="Fill-270" fill="#292A28"></path>
                        <path d="M74.0775,10.5056 C75.021,9.7412 75.49275,9.3576 75.49275,9.3576 C75.3043333,9.9638 75.208,10.2662 75.208,10.2662 C74.2545833,11.1734 73.78,11.6256 73.78,11.6256 C73.2289167,11.4814 72.9526667,11.4086 72.9526667,11.4086 C72.726,11.2238 72.6268333,11.0894 72.6523333,11.0096 C73.1368333,10.6526 73.3776667,10.4748 73.3776667,10.4748 C73.8451667,10.4958 74.0775,10.5056 74.0775,10.5056" id="Fill-271" fill="#171615"></path>
                        <path d="M73.78,11.6256 C74.732,10.7184 75.208,10.2662 75.208,10.2662 C75.208,10.2662 75.6910833,10.9158 76.653,12.215 C75.9234167,12.3508 75.18675,12.4432 74.44725,12.4894 C74.0024167,11.914 73.78,11.6256 73.78,11.6256" id="Fill-272" fill="#989995"></path>
                        <path d="M83.1314167,8.4406 C82.68375,8.0808 82.4585,7.9002 82.4585,7.9002 C80.2541667,7.5712 79.152,7.4074 79.152,7.4074 C77.0043333,9.9624 75.9305,11.2406 75.9305,11.2406 C76.4121667,11.8902 76.653,12.215 76.653,12.215 C79.1463333,11.753 81.515,10.787 83.6116667,9.3772 C83.2915,8.7528 83.1314167,8.4406 83.1314167,8.4406" id="Fill-273" fill="#141412"></path>
                        <path d="M63.7216667,13.8278 C69.0653333,10.829 71.7371667,9.3296 71.7371667,9.3296 C67.8484167,6.783 59.5623333,5.852 46.8760833,6.538 C44.71,7.9184 43.58375,10.4412 44.0115833,12.9528 C49.4388333,19.3368 52.1531667,22.5316 52.1531667,22.5316 C60.7650833,17.1038 65.0703333,14.3906 65.0703333,14.3906 C64.17075,14.0154 63.7216667,13.8278 63.7216667,13.8278" id="Fill-274" fill="#932427"></path>
                        <path d="M30.1778333,10.8822 L44.0115833,12.9528 L52.1531667,22.5316 L48.22475,25.0068 L50.5863333,30.3394 C52.3415833,29.8508 54.2186667,30.4948 55.2925,31.9536 C56.3635,33.4124 56.4031667,35.3766 55.39025,36.876 C54.3773333,38.3754 52.5271667,39.0922 50.7520833,38.6722 L43.94925,44.7552 L30.7714167,39.4254 L37.80375,22.372 L26.6659167,9.8728 L27.5598333,7.3542 L30.1778333,10.8822" id="Fill-275" fill="#0E0E0C"></path>
                        <polyline id="Fill-276" fill="#141412" points="59.2605833 34.6122 54.451 25.4968 67.1386667 15.2544 71.281 16.9806 57.7546667 31.0548 59.2605833 34.6122"></polyline>
                        <path d="M27.5598333,7.3542 C28.4325,8.5302 28.8688333,9.1182 28.8688333,9.1182 C28.8235,7.959 28.2965,6.8698 27.4110833,6.1082 C26.52425,5.3452 25.35975,4.9784 24.191,5.0946 C13.8606667,5.4558 8.69691667,5.6378 8.69691667,5.6378 C27.6179167,17.9676 37.0784167,24.1304 37.0784167,24.1304 C37.5615,22.9586 37.80375,22.372 37.80375,22.372 C30.379,14.0392 26.6659167,9.8728 26.6659167,9.8728 C27.2623333,8.1942 27.5598333,7.3542 27.5598333,7.3542" id="Fill-277" fill="#B6252B"></path>
                        <path d="M87.2765833,30.9526 C91.14125,30.8546 94.3528333,33.8702 94.452,37.688 C94.5525833,41.5072 91.4996667,44.681 87.6378333,44.779 C83.7731667,44.8784 80.5615833,41.8614 80.461,38.045 C80.3618333,34.2258 83.4133333,31.052 87.2765833,30.9526 Z M87.2454167,29.729 C82.6965,29.8452 79.1066667,33.5818 79.22425,38.0758 C79.3404167,42.5684 83.1215,46.1174 87.669,46.0012 C92.2150833,45.885 95.8063333,42.1498 95.68875,37.6572 C95.5725833,33.1632 91.7915,29.6142 87.2454167,29.729 Z" id="Fill-278" fill="#838481"></path>
                        <path d="M80.5176667,28.3402 C81.7714167,26.46 82.399,25.5206 82.399,25.5206 C86.8884167,33.4096 89.1324167,37.3548 89.1324167,37.3548 C89.4823333,38.1136 89.1763333,39.0096 88.4311667,39.4044 C87.6888333,39.8006 86.76375,39.557 86.3160833,38.85 C82.4514167,31.843 80.5176667,28.3402 80.5176667,28.3402" id="Fill-279" fill="#B0B0AD"></path>
                        <path d="M15.9601667,26.7694 C21.29675,26.7694 25.6218333,31.045 25.6218333,36.3188 C25.6218333,41.5926 21.29675,45.8682 15.9601667,45.8682 C10.6235833,45.8682 6.29708333,41.5926 6.29708333,36.3188 C6.29708333,31.045 10.6235833,26.7694 15.9601667,26.7694 Z M15.9601667,20.6472 C7.20233333,20.6472 0.102,27.6626 0.102,36.3188 C0.102,44.9736 7.20233333,51.9904 15.9601667,51.9904 C24.718,51.9904 31.8183333,44.9736 31.8183333,36.3188 C31.8183333,27.6626 24.718,20.6472 15.9601667,20.6472 Z" id="Fill-280" fill="#403E3B"></path>
                        <path d="M15.9601667,26.7694 C21.29675,26.7694 25.6218333,31.045 25.6218333,36.3188 C25.6218333,41.5926 21.29675,45.8682 15.9601667,45.8682 C10.6235833,45.8682 6.29708333,41.5926 6.29708333,36.3188 C6.29708333,31.045 10.6235833,26.7694 15.9601667,26.7694 Z M15.9601667,24.1094 C9.1375,24.1094 3.60541667,29.575 3.60541667,36.3188 C3.60541667,43.0612 9.1375,48.5282 15.9601667,48.5282 C22.7828333,48.5282 28.3149167,43.0612 28.3149167,36.3188 C28.3149167,29.575 22.7828333,24.1094 15.9601667,24.1094 Z" id="Fill-281" fill="#D9DAD5"></path>
                        <path d="M15.9601667,26.7694 C21.29675,26.7694 25.6218333,31.045 25.6218333,36.3188 C25.6218333,41.5926 21.29675,45.8682 15.9601667,45.8682 C10.6235833,45.8682 6.29708333,41.5926 6.29708333,36.3188 C6.29708333,31.045 10.6235833,26.7694 15.9601667,26.7694 Z M15.9601667,25.9168 C10.1461667,25.9168 5.43433333,30.5732 5.43433333,36.3188 C5.43433333,42.063 10.1461667,46.7208 15.9601667,46.7208 C21.7741667,46.7208 26.486,42.063 26.486,36.3188 C26.486,30.5732 21.7741667,25.9168 15.9601667,25.9168 Z" id="Fill-282" fill="#989995"></path>
                        <path d="M15.9601667,40.8492 C18.4860833,40.8492 20.5445,38.8136 20.5445,36.3174 C20.5445,33.8226 18.4860833,31.787 15.9601667,31.787 C13.4356667,31.787 11.3758333,33.8226 11.3758333,36.3174 C11.3758333,38.8136 13.4356667,40.8492 15.9601667,40.8492" id="Fill-283" fill="#838481"></path>
                        <path d="M30.7048333,34.9748 C36.0499167,36.1116 38.7755833,36.4182 38.7755833,36.4182 C39.5023333,36.0976 39.96275,35.3766 39.9429167,34.5912 C39.831,30.3016 29.1465,29.7486 25.1670833,31.871 C19.2666667,34.2174 16.31575,35.3906 16.31575,35.3906 C15.6796667,35.7826 15.42325,36.5708 15.708,37.254 C26.32025,35.6832 30.1013333,34.8474 30.7048333,34.9748" id="Fill-284" fill="#171615"></path>
                        <path d="M84.63875,22.1578 C89.5531667,21.434 94.5256667,23.0496 98.0460833,26.5174 C97.44825,27.0074 96.6095833,27.0886 95.92675,26.7218 C93.3215,26.3956 90.67375,26.5132 88.10675,27.0704 L87.3346667,32.333 C87.3148333,32.5304 87.1745833,32.6984 86.9805,32.753 C86.7864167,32.8062 86.5795833,32.7376 86.4563333,32.5794 L82.399,25.5206 L84.63875,22.1578" id="Fill-285" fill="#D2272F"></path>
                        <path d="M43.94925,44.7552 C43.1190833,45.4972 42.7054167,45.8682 42.7054167,45.8682 C26.52,44.7902 18.4265833,44.2512 18.4265833,44.2512 C26.656,41.0354 30.7714167,39.4254 30.7714167,39.4254 C39.5561667,42.9786 43.94925,44.7552 43.94925,44.7552" id="Fill-286" fill="#171615"></path>
                        <path d="M76.30875,18.0012 C82.8424167,19.299 86.1106667,19.9486 86.1106667,19.9486 C89.2259167,18.6704 90.7828333,18.0306 90.7828333,18.0306 C81.1339167,18.011 76.30875,18.0012 76.30875,18.0012" id="Fill-287" fill="#D2272F"></path>
                    </g>
                </g>
            </g>
        </g>
    </g>
</svg>